<svg xmlns="http://www.w3.org/2000/svg" viewBox="0 0 500 500"><defs><style>.cls-1{fill:#8c00ff;}.cls-2{font-size:60px;font-family:MyriadPro-Regular, Myriad Pro;}.cls-3{letter-spacing:-0.01em;}.cls-4{letter-spacing:-0.01em;}.cls-5{letter-spacing:0em;}</style></defs><title>Autoritarisme</title><g id="Layer_1" data-name="Layer 1"><rect class="cls-1" x="10" y="10" width="480" height="480"/><path d="M480,20V480H20V20H480M500,0H0V500H500V0Z"/><text class="cls-2" transform="translate(78.53 459.6)"><tspan class="cls-3">A</tspan><tspan x="36" y="0">u</tspan><tspan class="cls-4" x="69.06" y="0">t</tspan><tspan x="88.56" y="0">o</tspan><tspan class="cls-5" x="121.5" y="0">r</tspan><tspan x="141.36" y="0">ita</tspan><tspan class="cls-5" x="204.18" y="0">r</tspan><tspan x="224.04" y="0">isme</tspan></text></g><g id="Layer_3" data-name="Layer 3"><path d="M250.83,57.43C231.31,60.6,217.19,69.49,211,82.18c-3.33,6.66-4,9.68-3,14.28,2.06,11.1,2.7,11.58,16.66,11.58h12.69V98.52h19.2L254.16,95c-1.43-2.06-2.54-6.82-2.54-11.26,0-6.35.79-8.41,4.6-12.38,2.54-2.54,6.19-4.6,8.09-4.6,4.29,0,10.47,6.66,11.74,12.69,1,5.4-.31,14-2.38,15.23-3.65,2.22-.63,3.81,7.14,3.81,8.25,0,8.73.16,9.21,4.28.47,4.45.63,4.45,12.53,4.92,14.12.48,15.86-.63,17-12.21,1.74-18.09-15.87-33.8-42.52-38.08C265.42,55.52,262.09,55.52,250.83,57.43Z"/><path d="M117.39,69,112,74.4V138c0,54.73.32,64.41,2.54,68.54,4.28,8.41,9.2,9.36,49,9.36h35.7V320.62l47-71.39,45.69-73-34.27,1.59-34.65-.31v-10.8H167.69l-.48,5.08c-.47,5.08-.63,5.24-8.72,5.71l-8.41.48V128.67c0-53.31-.48-57.12-8.41-62.36-2.38-1.58-7.3-2.69-11.58-2.69C123.9,63.62,122,64.41,117.39,69Zm125.09,129.6c5.24,2.54,6.51,5.24,6.51,12.86,0,12.37-16.19,18.24-24.6,9.2-5.55-6-5.39-13.81.64-19.83C230.26,195.76,235.66,195,242.48,198.61Z"/><path d="M210.37,125.49v6.35h7c7,0,7,0,8.09,6.35,1.59,8.88,9.68,20.46,18.41,25.7,21.89,13.64,51.4,1.43,57.27-23.8,2.06-8.09,2.06-8.25,7.93-8.25,6,0,6,0,6-6.35v-6.34H210.37Z"/><path d="M300.8,172.3v5.55h10.32c5.71,0,10.31.48,10.31,1,0,.64-13,21.1-28.88,45.7-15.86,24.43-36.49,56.48-46,71.07l-17,26.66H323V236.55h12.69v59.5c0,65.53.32,68.22,9.36,72.82a20.84,20.84,0,0,0,19.36,0c9-4.6,9.36-6.82,9.36-78.37V225.45h9.52v-47.6h4c3.49,0,4-.63,4-5.55v-5.56H300.8Zm42.84,29.35v23.8h-7.93v-47.6h7.93Zm14.82-.66c0,22.69-.16,23.8-3.17,23.8s-3.18-1.11-3.18-23.8.16-23.8,3.18-23.8S358.46,178.31,358.46,201Zm15.33.66v23.8h-7.94v-47.6h7.94Z"/><path d="M199.26,360.31V373H323V347.61H199.26Z"/></g></svg>