<svg xmlns="http://www.w3.org/2000/svg" viewBox="0 0 500 500"><defs><style>.cls-1{fill:#03b0f4;}.cls-2{font-size:60px;font-family:MyriadPro-Regular, Myriad Pro;}.cls-3{letter-spacing:-0.01em;}.cls-4{letter-spacing:0em;}.cls-5{letter-spacing:0em;}.cls-6{letter-spacing:0em;}</style></defs><title>Centraal</title><g id="Layer_1" data-name="Layer 1"><rect class="cls-1" x="10" y="10" width="480" height="480"/><path d="M480,20V480H20V20H480M500,0H0V500H500V0Z"/><text class="cls-2" transform="translate(145.28 459.6)"><tspan class="cls-3">C</tspan><tspan x="34.14" y="0">e</tspan><tspan class="cls-4" x="64.2" y="0">n</tspan><tspan class="cls-5" x="97.26" y="0">t</tspan><tspan class="cls-6" x="117.12" y="0">r</tspan><tspan x="136.44" y="0">aal</tspan></text></g><g id="Layer_3" data-name="Layer 3"><path d="M245.38,39.49A29,29,0,0,0,223.8,54.16a28.37,28.37,0,0,0-2.66,7.28,33.89,33.89,0,0,0,0,9.75c2.18,11,11.55,19.77,23.28,21.81a41.21,41.21,0,0,0,10.41,0c11.73-2,21.11-10.82,23.29-21.81a34.62,34.62,0,0,0,0-9.75c-1.93-9.69-9.42-17.71-19.47-20.87-1.1-.34-2.76-.74-3.72-.92A41.86,41.86,0,0,0,245.38,39.49Z"/><path d="M137.46,81.42a32.81,32.81,0,0,0-12.63,4.46A44.62,44.62,0,0,0,117,93.24a28.84,28.84,0,0,0-4.34,9.57,19.78,19.78,0,0,0-.45,5.61,19.49,19.49,0,0,0,.45,5.58,26.44,26.44,0,0,0,8.25,14,29.74,29.74,0,0,0,17.69,7.59,31,31,0,0,0,19.52-5.08,39.25,39.25,0,0,0,6.62-6.24,25.74,25.74,0,0,0,1.68-29,25.46,25.46,0,0,0-4.52-5.66,29.17,29.17,0,0,0-14.48-7.64,24.06,24.06,0,0,0-5.69-.51C139.7,81.37,137.79,81.39,137.46,81.42Z"/><path d="M354.75,81.49c-12.71,1.65-22.28,10-25,21.87a20.09,20.09,0,0,0-.35,5.15,17.7,17.7,0,0,0,.54,5.78,26.43,26.43,0,0,0,5.15,10.44A29,29,0,0,0,352,134.9a21.33,21.33,0,0,0,6.17.51,24.38,24.38,0,0,0,5.5-.33,30.08,30.08,0,0,0,15.05-7.51,26.78,26.78,0,0,0,7.92-13.92,29.78,29.78,0,0,0,0-10.4,26.21,26.21,0,0,0-8-13.91,28.79,28.79,0,0,0-14.85-7.5A40.84,40.84,0,0,0,354.75,81.49Z"/><path d="M246,98.44c-.19.08-.25,4.06-.25,19.09v19h-2.44s-2.51-.06-2.51,0,8.76,14.69,8.88,14.71,9.06-14.31,9.06-14.51a7.19,7.19,0,0,0-1.91-.13,22.1,22.1,0,0,1-2.51-.11l-.67-.11.2-19-.06-19-3.77,0C247.9,98.35,246.07,98.39,246,98.44Z"/><path d="M165.28,131a30.64,30.64,0,0,0-2.65,2.66c0,.11,6.39,6.16,14.18,13.46S191,160.43,191,160.54a12.33,12.33,0,0,1-1.68,1.75c-1.06,1-1.62,1.65-1.5,1.76a20.49,20.49,0,0,0,2.7.79L199,167c3.26.87,6,1.55,6.12,1.55s.19-.12.19-.27c0-.49-4.41-16-4.61-16.22s-.85.43-2,1.46l-1.82,1.64L182.6,141.84c-7.85-7.35-14.37-13.37-14.47-13.37A28.5,28.5,0,0,0,165.28,131Z"/><path d="M317,142c-7.85,7.36-14.37,13.37-14.49,13.37a10.6,10.6,0,0,1-1.79-1.53,12.77,12.77,0,0,0-1.75-1.54c-.1,0-.26.27-.35.58-2.36,7.79-4.5,15.21-4.44,15.39s2.2-.29,8.58-1.86c4.69-1.15,8.59-2.15,8.67-2.22a7.53,7.53,0,0,0-1.55-1.74,13.16,13.16,0,0,1-1.66-1.77c0-.09,6.43-6.18,14.28-13.53l14.27-13.37-2.76-2.58-2.74-2.57Z"/><path d="M245.86,155.86a62.73,62.73,0,0,0-21.25,5.22,54.4,54.4,0,0,0-16,10.66,51.91,51.91,0,0,0-13.48,19.64,46.48,46.48,0,0,0-3.46,18.76,46.43,46.43,0,0,0,3.46,18.75,51.83,51.83,0,0,0,13.48,19.64,56.34,56.34,0,0,0,21,12.63,55.7,55.7,0,0,0,20,3.24,55.68,55.68,0,0,0,20-3.24,56.26,56.26,0,0,0,21-12.63,52,52,0,0,0,13.49-19.64,46.59,46.59,0,0,0,3.45-18.75,46.64,46.64,0,0,0-3.45-18.76,52,52,0,0,0-13.49-19.64,54.4,54.4,0,0,0-16-10.66,61.34,61.34,0,0,0-17.59-4.87A104.49,104.49,0,0,0,245.86,155.86Z"/><path d="M92.23,183.14a32.37,32.37,0,0,0-12.5,4.52,36.64,36.64,0,0,0-7.64,7.16,29.3,29.3,0,0,0-4.49,9.93,38.85,38.85,0,0,0,0,10.77,26.08,26.08,0,0,0,8,13.77,29,29,0,0,0,14.7,7.54,47.07,47.07,0,0,0,11.5,0,28.88,28.88,0,0,0,14.69-7.54,26,26,0,0,0,8-13.77,38.85,38.85,0,0,0,0-10.77,26,26,0,0,0-8-13.76,28.48,28.48,0,0,0-14.27-7.45,25.16,25.16,0,0,0-5.59-.41C94.49,183.09,92.5,183.11,92.23,183.14Z"/><path d="M398.92,183.31c-9.28,1.32-17.46,6.88-21.58,14.67a23.19,23.19,0,0,0-3,12.16,21.6,21.6,0,0,0,1.33,8.45A28.75,28.75,0,0,0,398,236.83a42.16,42.16,0,0,0,10.41,0c11.73-2.05,21.1-10.83,23.28-21.81a34,34,0,0,0,0-9.76c-1.93-9.68-9.41-17.71-19.46-20.87-1.1-.34-2.76-.74-3.72-.92A41.87,41.87,0,0,0,398.92,183.31Z"/><path d="M170.86,203.81v2.28h-20c-11,0-20.18.06-20.35.11s-.31.6-.31,3.8v3.68h40.67l-.07,2.26a9.37,9.37,0,0,0,.11,2.4c.14.25,1.37-.34,7.87-3.77,4.24-2.25,7.83-4.2,8-4.32s-1.26-1.05-7.58-4.5c-4.29-2.35-7.89-4.28-8-4.28A16.92,16.92,0,0,0,170.86,203.81Z"/><path d="M320.19,205.88c-4.27,2.26-7.79,4.14-7.79,4.19s15.31,8.49,15.52,8.49a5.69,5.69,0,0,0,.14-1.79,21.85,21.85,0,0,1,.11-2.35l.12-.56,20.36.18H369l.06-3.52c0-1.79,0-3.43-.06-3.67l-.1-.39h-40.6v-2.35a10.85,10.85,0,0,0-.13-2.35C328,201.76,324.46,203.62,320.19,205.88Z"/><path d="M196.12,253.79c-4.55,1.12-8.37,2.13-8.47,2.22s.46.8,1.56,1.86l1.76,1.7-14.25,13.36c-7.86,7.35-14.28,13.46-14.28,13.55a55.93,55.93,0,0,0,5.5,5.15c.11,0,6.58-6,14.37-13.28s14.25-13.28,14.37-13.28a13,13,0,0,1,1.87,1.57c1.06,1,1.76,1.52,1.87,1.41a18.08,18.08,0,0,0,.85-2.53c.39-1.3,1.43-4.84,2.33-7.92s1.66-5.63,1.66-5.72-.19-.18-.42-.17S200.67,252.65,196.12,253.79Z"/><path d="M294.59,253.9c.31,1.12,1.31,4.72,2.24,8s1.71,6,1.81,6.13.89-.51,1.87-1.39a11.59,11.59,0,0,1,1.89-1.57c.1,0,6.6,6,14.45,13.37l14.27,13.37,2.76-2.59,2.74-2.56-14.28-13.37c-7.85-7.36-14.27-13.46-14.27-13.57a9.87,9.87,0,0,1,1.64-1.68,11.9,11.9,0,0,0,1.64-1.65c0-.09-.29-.23-.62-.32-7-1.85-16.16-4.19-16.39-4.19S294.09,252.13,294.59,253.9Z"/><path d="M244.94,276.18c-2.51,4-4.57,7.39-4.57,7.5a21.08,21.08,0,0,0,2.51.11h2.43v18.77c0,10.34.06,18.9.12,19.06s.63.29,4,.29h3.93V284l2.41.07a11.23,11.23,0,0,0,2.56-.11c.27-.13-.36-1.28-4-7.37-2.39-4-4.47-7.34-4.61-7.46S248.62,270.25,244.94,276.18Z"/><path d="M138,284.78a31.73,31.73,0,0,0-11,3.32,28,28,0,0,0-14.29,18.18,19.49,19.49,0,0,0-.45,5.58,20.66,20.66,0,0,0,1.59,9.22,24,24,0,0,0,6.88,9.86,26.08,26.08,0,0,0,10.53,6.45,24.79,24.79,0,0,0,9.84,1.48,24,24,0,0,0,6-.41,29.25,29.25,0,0,0,14.89-7.73,25.85,25.85,0,0,0,2.68-34.86,39.89,39.89,0,0,0-6.65-6.2,31.38,31.38,0,0,0-14.16-4.91A26.79,26.79,0,0,0,138,284.78Z"/><path d="M354.23,285a30.59,30.59,0,0,0-13.54,5.31A27,27,0,0,0,329.94,306a17.7,17.7,0,0,0-.54,5.78,20.09,20.09,0,0,0,.35,5.15,27,27,0,0,0,8,14.09,29.77,29.77,0,0,0,14.85,7.43,36.31,36.31,0,0,0,11.11,0,29,29,0,0,0,14.85-7.52,26.21,26.21,0,0,0,8-13.91,29.84,29.84,0,0,0,0-10.41c-2.48-10.91-10.84-18.82-22.49-21.32A45.32,45.32,0,0,0,354.23,285Z"/><path d="M245.77,327a32.15,32.15,0,0,0-12.5,4.51,36.9,36.9,0,0,0-7.64,7.16,29.26,29.26,0,0,0-4.49,9.94,38.85,38.85,0,0,0,0,10.77,26,26,0,0,0,8,13.76,28.84,28.84,0,0,0,14.7,7.54,47,47,0,0,0,11.49,0,28.8,28.8,0,0,0,14.7-7.54,26,26,0,0,0,8.05-13.76,38.85,38.85,0,0,0,0-10.77,26.1,26.1,0,0,0-8.05-13.77,28.68,28.68,0,0,0-14.27-7.45,26.54,26.54,0,0,0-5.6-.41C248,326.91,246,326.93,245.77,327Z"/></g></svg>