<svg xmlns="http://www.w3.org/2000/svg" viewBox="0 0 500 500"><defs><style>.cls-1{fill:red;}.cls-2{font-size:60px;font-family:MyriadPro-Regular, Myriad Pro;}.cls-3{letter-spacing:-0.01em;}.cls-4{fill-rule:evenodd;}</style></defs><title>Communisme</title><g id="Layer_1" data-name="Layer 1"><rect class="cls-1" x="10" y="10" width="480" height="480"/><path d="M480,20V480H20V20H480M500,0H0V500H500V0Z"/><text class="cls-2" transform="translate(73.79 459.6)"><tspan class="cls-3">C</tspan><tspan x="34.14" y="0">ommunisme</tspan></text></g><g id="Layer_2" data-name="Layer 2"><g id="__x0020_1" data-name="??_x0020_1"><path class="cls-4" d="M235.62,160.42l99.24,100.65a106.25,106.25,0,0,0,14.23-53.3A157.17,157.17,0,0,0,250.73,61.39l-1-.39C332.17,61.06,399,128.88,399,212.5A152.21,152.21,0,0,1,372.25,299L399,326.12,361.66,364,335,336.8A147.21,147.21,0,0,1,249.63,364,166.76,166.76,0,0,1,151,331.48L146.54,336a23.91,23.91,0,0,1,.39,4.34,23.34,23.34,0,1,1-23.34-23.67,23.26,23.26,0,0,1,4.28.4l2.95-3a169.15,169.15,0,0,1-21-26l22.94-23.27A153.87,153.87,0,0,0,245,313.38a102.54,102.54,0,0,0,52.83-14.6l-99-101-28.57,29-42-42.61,74-75a49.14,49.14,0,0,0,47.39-10.2L273,122.55l-37.35,37.87Z"/></g></g></svg>