<svg xmlns="http://www.w3.org/2000/svg" viewBox="0 0 500 500"><defs><style>.cls-1{fill:#427500;}.cls-2{font-size:60px;font-family:MyriadPro-Regular, Myriad Pro;}.cls-3{letter-spacing:-0.01em;}.cls-4{letter-spacing:0.03em;}.cls-5{letter-spacing:0em;}</style></defs><title>Conservatief</title><g id="Layer_1" data-name="Layer 1"><rect class="cls-1" x="10" y="10" width="480" height="480"/><path d="M480,20V480H20V20H480M500,0H0V500H500V0Z"/><text class="cls-2" transform="translate(92.45 459.6)"><tspan class="cls-3">C</tspan><tspan x="34.14" y="0">onse</tspan><tspan class="cls-4" x="154.2" y="0">r</tspan><tspan class="cls-5" x="175.32" y="0">va</tspan><tspan x="232.62" y="0">tief</tspan></text></g><g id="Layer_2" data-name="Layer 2"><path d="M162.05,76.1c-14.23,3.12-25.28,15.86-27,31.18-.34,3.18-.88,4.54-2.38,6.1-2.91,3.05-3.38,5.08-3.38,14,0,9.08.67,11.52,3.86,14.23,1.69,1.42,2.23,2.58,2.84,6.17,1.09,6.5,3.19,12.27,7,19.86,4.21,8.2,11.39,16,17.42,18.84,11.12,5.28,26.57,5.83,38.7,1.22,5-1.9,10.64-6.24,14.71-11.32,5.69-7.12,11.38-20.4,12.67-29.55a8.23,8.23,0,0,1,2.51-5.08c3.52-3.32,3.93-4.75,3.93-14.57,0-8-.14-9.29-1.42-11.39a14.14,14.14,0,0,0-2.72-3.25c-.88-.61-1.28-1.7-1.28-3.39a40.34,40.34,0,0,0-1-6.78A35.82,35.82,0,0,0,200.34,76.1C194.65,74.75,168.15,74.75,162.05,76.1Zm34.7,11.25A20.59,20.59,0,0,1,209,93.72c5,5,7.12,11,7.12,20.13,0,3.32.27,4.27,1.69,5.63a5.11,5.11,0,0,0,2.71,1.69c.81,0,1,1,1,6.1,0,5.49-.14,6.1-1.22,6.1-2.37,0-3.66,2.44-4.61,8.74C213.29,158,205.29,172,196,176.41c-7.52,3.52-22.23,3.52-29.82-.07-9.08-4.27-17.41-19.11-19.31-34.5-.75-5.69-2.31-8.47-4.81-8.47-1.09,0-1.22-.68-1.22-6.1s.13-6.1,1.15-6.1a5.49,5.49,0,0,0,2.71-1.49c1.22-1.15,1.56-2.17,1.56-4.88.07-5.69,1.15-11.72,2.85-15a23.32,23.32,0,0,1,16.33-12.4C169.71,86.47,192.14,86.47,196.75,87.35Z"/><path d="M162.52,121.58c-4.13,1.69-5.49,6.84-2.5,9.62,1.35,1.29,2.37,1.49,6.84,1.49s5.42-.2,6.85-1.69c2.17-2.1,2.17-5.08.13-7.46-1.29-1.56-2.17-1.89-5.89-2.1A23.69,23.69,0,0,0,162.52,121.58Z"/><path d="M190.58,122.12a5.51,5.51,0,0,0-3,7.18,5.86,5.86,0,0,0,2.1,2.71c1.76,1,10.91.82,12.27-.27a5.66,5.66,0,0,0-1.22-9.62A15.42,15.42,0,0,0,190.58,122.12Z"/><path d="M320.44,87.08c-14.3,2.37-29.82,13.83-36.87,27.25a42.61,42.61,0,0,0-3.05,7.25c-.41,1.49-2.1,20.53-3.8,42.22-3.18,41.14-3.18,41.14-.4,43.24,1.83,1.42,5.35,1,7.18-.75s1.63.68,5.08-45.81L291.29,125l2-4.34c2.5-5.29,11.25-14.37,16.94-17.55,7.18-3.94,10.17-4.61,21.35-4.61,12.13,0,16.33,1.15,24.4,6.57a37.12,37.12,0,0,1,13.55,15.11l2.37,4.75,2.72,35.92c3.45,45.75,3.18,43.58,5.15,45.54,1.76,1.76,5.28,2.1,7.18.61,2.64-2,2.64-3.18-.47-43.58C383.26,121,383,119.21,378.59,112c-7-11.45-21.22-21.69-34.09-24.4C340.09,86.67,324.84,86.34,320.44,87.08Z"/><path d="M323.92,121.94c-1.35.47-2.57,2-4.34,5.36a28.11,28.11,0,0,1-4.95,6.78c-2.78,2.31-8.68,4.68-11.6,4.68a7.37,7.37,0,0,0-3.87,1.63l-1.9,1.63-.2,12.14a160.79,160.79,0,0,0,.54,18.52c1.43,12.42,6.72,24.22,14.25,32,8.28,8.41,17.37,11.19,27.07,8.14,9.09-2.85,15.8-9.23,21.16-20.08,5.5-11.27,6.31-15.54,6.31-34.47l.07-16.21-1.9-1.63a6.66,6.66,0,0,0-4.75-1.63c-4.61,0-14.85-2.37-18.79-4.41-4.48-2.24-7.19-4.61-8.82-7.8C330,122.28,327.25,120.72,323.92,121.94Zm4.45,18.48c2.64,2.78,10.91,6.44,18.1,7.93,3.72.81,7.11,1.56,7.59,1.69,1,.27,1.15,13.76.13,21.89-1.28,9.9-5.35,19-11.18,24.88-4.13,4.06-6.71,5.28-11.52,5.35s-9-2.1-12.81-6.57c-7.66-8.88-10.57-19.32-10.57-37.55v-8.2l3.93-1.42A33.61,33.61,0,0,0,324,140.89a11.88,11.88,0,0,1,2.44-2.1A6.07,6.07,0,0,1,328.37,140.42Z"/><path d="M138.33,202.91c-1.08.13-4.94.61-8.47,1-29.21,3.26-48.93,15.73-52.18,33.08-.41,2.23-.68,26.22-.68,63.5v59.91l1.58,1.78a5.36,5.36,0,0,0,7.82.39l1.44-1.51.68-61.52.34-61.47L90.42,235c4.13-8.47,15.32-14.84,31.85-18.16,6.64-1.36,24.4-3.19,24.94-2.58.21.21,6.71,30.71,14.44,67.91,15.45,73.94,14.43,70.42,19.45,70.42,2.78,0,5.69-2.64,5.69-5.15,0-1.7-28.19-137.51-29.21-140.7s-3.45-4.2-10.91-4.13C143.21,202.63,139.49,202.84,138.33,202.91Z"/><path d="M176.29,203.58c-4.54,2.31-6.44,5.36-6.44,10.1,0,3.73,1.63,7.46,3.79,8.95l1.63,1v21.69c0,22,.14,23.52,2.64,25.42,1.83,1.42,5.36,1,7.19-.82l1.69-1.62V224.05l1.7-1.35c4.81-3.73,5.35-11.25,1.22-16.2C186.45,202.63,180.56,201.35,176.29,203.58Z"/><path d="M207.59,203.24a6,6,0,0,0-2.17,1.9c-.4.68-2.16,8.27-3.93,16.88-2.91,14.64-3.05,15.79-2.1,17.62a5.54,5.54,0,0,0,9.36.81c.74-1.08,2.16-6.37,3.72-14.09L214.91,214l5.15.41c18.37,1.49,28.47,3.66,37.75,8.2,5.9,2.85,9,5.42,14.37,11.72,1.63,1.9,2.51,2.38,4.41,2.38,4.94,0,7-4.27,4.47-9.22-4.81-9.42-19.86-18.16-37.89-21.89C231.52,203.11,210.64,201.75,207.59,203.24Z"/><path d="M299.09,215.38c-2.3,1.83-2.71,4.06-1.83,10.16,1.56,10.91,5.43,19.59,11.66,25.82,3.46,3.46,10.17,7.19,14.23,7.8l2.58.47v31.72l1.69,1.63a5.59,5.59,0,0,0,3.66,1.69c5.76,0,6.17-1.35,6.17-19.86V259.63l2.58-.47c4.27-.68,10.57-4.27,14.63-8.34,4.55-4.54,8.61-12.47,10.31-20,1.08-4.68,1.35-5.22,2.57-5,.81.14,3.19.48,5.36.68,15.52,1.69,29.54,10.44,35.31,22,4.47,8.81,4.47,8.54,4.47,62.89v48.93l1.63,1.83a5.28,5.28,0,0,0,8.26,0l1.63-1.83V310.87c0-42.56-.14-50.22-1.08-54.69-4.75-23.05-23.18-38-51.11-41.48-12-1.42-15.65-.61-16.87,3.93a19.59,19.59,0,0,0-.75,4.54,29.79,29.79,0,0,1-1.08,6.1c-3.19,12.33-11,19.32-21.55,19.32-12.61,0-20.74-9.09-22.84-25.28-.75-5.9-1.43-7.46-3.8-8.54S301.06,213.82,299.09,215.38Z"/><path d="M250.22,249.2c-12.94,2.1-22.5,10.09-26.77,22.43-1.29,3.86-1.49,5.83-1.49,15.25-.07,8.88.2,11.93,1.42,16.87,4.68,18.84,17.69,30.3,35.72,31.38,23.59,1.43,39.72-12.81,43.11-38.09.94-7.32.4-19.52-1.16-24.73a32.29,32.29,0,0,0-21.28-21.76c-3.52-1.15-6.64-1.49-15.25-1.63A133.14,133.14,0,0,0,250.22,249.2Zm22.44,11.65q21.24,3.87,18.16,32.67c-2.24,21.08-12.67,31.24-31,30.09-5.15-.34-6.78-.75-11-2.85-9.69-4.81-14.3-13.69-15.45-29.82-1.22-17.35,4.4-27,17.28-29.88C255.37,260,267.51,259.9,272.66,260.85Z"/><path d="M249.27,283.62c-6,2.24-4.88,11.12,1.5,11.05a5.18,5.18,0,0,0,5.35-3.93,5.44,5.44,0,0,0-3.52-6.84,12.32,12.32,0,0,0-2.24-.68C250.29,283.22,249.82,283.42,249.27,283.62Z"/><path d="M271.91,283.83a5.65,5.65,0,0,0-2,9.15,5.44,5.44,0,0,0,8.87-1.16C281.2,287.22,276.59,281.93,271.91,283.83Z"/><path d="M115.29,272.58a6.25,6.25,0,0,0-2.91,2.71c-1.22,2.71-1.15,94.88.07,97.32a5.64,5.64,0,0,0,9.28,1.22c1.36-1.42,1.36-2.17,1.36-50V275.22l-1.5-1.36C119.43,271.9,117.66,271.56,115.29,272.58Z"/><path d="M381.57,272.58a5.5,5.5,0,0,0-2.91,3.11c-.54,1.63-.75,16-.75,49.48,0,46.49,0,47.24,1.36,48.66a5.64,5.64,0,0,0,9.28-1.22c.68-1.29.89-12.33.89-49.54V275.22l-1.5-1.36C385.78,271.9,384,271.56,381.57,272.58Z"/><path d="M230.64,342.39c-10.44,1.9-18.17,6.37-21.89,12.54-4.27,7.12-5.56,15.93-2.85,18.84a5.28,5.28,0,0,0,6.51,1.36c2.37-1.09,3.66-3.46,3.66-6.85,0-4.88,3.93-10.1,9.14-12.33a57,57,0,0,1,15.46-3.05c2.44,0,4.13.88,11.65,5.83,7.19,4.74,9.09,5.76,10.64,5.42,1-.2,5.56-2.85,10-5.83,9.08-6,9.48-6.17,18.43-4.47,10.84,2.1,16.81,7,16.81,14s5.89,10.3,10.23,6c1.29-1.29,1.42-2,1.15-6.78-.4-6.57-3.25-12.87-7.52-16.6-6.3-5.49-17.82-9.08-29.21-9.08H277.4l-7.66,5.08-7.59,5.08-7.59-5.08-7.66-5.08-5.76.06A71.71,71.71,0,0,0,230.64,342.39Z"/></g></svg>