<svg xmlns="http://www.w3.org/2000/svg" viewBox="0 0 500 500"><defs><style>.cls-1{fill:#b00;}.cls-2{font-size:60px;font-family:MyriadPro-Regular, Myriad Pro;}.cls-3{letter-spacing:0em;}.cls-4{letter-spacing:0em;}.cls-5{letter-spacing:0em;}</style></defs><title>Democratie</title><g id="Layer_1" data-name="Layer 1"><rect class="cls-1" x="10" y="10" width="480" height="480"/><path d="M480,20V480H20V20H480M500,0H0V500H500V0Z"/><text class="cls-2" transform="translate(103.46 459.6)"><tspan class="cls-3">D</tspan><tspan x="40.2" y="0">emoc</tspan><tspan class="cls-4" x="180.12" y="0">r</tspan><tspan class="cls-5" x="199.44" y="0">a</tspan><tspan x="228.12" y="0">tie</tspan></text></g><g id="Layer_2" data-name="Layer 2"><path d="M376.45,250.85a11.86,11.86,0,0,0-.36-2c0-.27-.08-.55-.14-.82a11.87,11.87,0,0,0-1.39-3.39c-.15-.27-.3-.54-.47-.8a10.57,10.57,0,0,0-.61-1L323,163.21a12.1,12.1,0,0,0-10.22-5.64h-.07L341,129.28a12.19,12.19,0,0,0,0-17.19L285.57,56.56a12.11,12.11,0,0,0-17.15,0l-98.09,98.32a12.2,12.2,0,0,0,0,17.2l7.54,7.56-41,64.7c-.07.1-.09.22-.16.32a14.28,14.28,0,0,0-1,2.25c-.09.27-.17.52-.24.79a12.22,12.22,0,0,0-.37,2.27c0,.22-.06.43-.06.66s0,.14,0,.14V362.86A12.13,12.13,0,0,0,147.14,375h217a12.14,12.14,0,0,0,12.14-12.14V252.45A11.88,11.88,0,0,0,376.45,250.85ZM195.61,196.64l27,27H200.17a4.13,4.13,0,1,0-.06,8.26H311.62a4.13,4.13,0,1,0-.05-8.26h-65l42.19-42.2h17.59l36.09,56.88H169.17ZM352.43,350.23H159.77V263.07H352.43v87.16Z"/></g></svg>