<svg id="Layer_1" data-name="Layer 1" xmlns="http://www.w3.org/2000/svg" viewBox="0 0 500 500"><defs><style>.cls-1{fill:#0155a5;}.cls-2{font-size:60px;font-family:MyriadPro-Regular, Myriad Pro;}.cls-3{letter-spacing:-0.03em;}.cls-4{letter-spacing:0em;}</style></defs><title>friesland</title><rect class="cls-1" x="10" y="10" width="480" height="480"/><path d="M480,20V480H20V20H480M500,0H0V500H500V0Z"/><path d="M404.7,39.17c-8.8,1.3-16.9,3-18,3.8s-3,3-4.1,5c-1.7,3-1.8,3.8-.6,4.5.9.6,1.1,1.8.7,3.5-.7,2.9,1.3,3.8,2.1.8,1-3.7,5.2-5.5,15.7-6.4,13.3-1.2,13.6-1.3,18.1-4.8,2.1-1.6,4.9-3,6.2-3a12.22,12.22,0,0,0,5.1-1.4,31.57,31.57,0,0,1,4.5-2c1-.3,1.5-1,1.2-1.6C434.6,36,421.8,36.57,404.7,39.17Z"/><path d="M244.1,56.07c-.7.9-1,1.8-.7,2.2s.2,1.2-.4,1.9c-1.8,2.2-.1,6.3,3.4,8.4,2.3,1.5,5,2,9.9,2,6.3,0,6.9-.2,11.2-3.9s4.8-3.9,8.2-2.9c9.6,2.6,28.7.6,42.1-4.4a26.48,26.48,0,0,1,10.6-1.7c5.3.4,8.2-.5,7.2-2.2-.9-1.3-12.1-1.1-27,.6-7.1.8-20.9,1.8-30.5,2.1-16.2.6-18,.5-23.7-1.5C247,54.17,245.7,54.07,244.1,56.07Z"/><path d="M358.7,60.07c.4.8.7,1.5.9,1.5a9.34,9.34,0,0,0,1.5-1.5c1-1.3.9-1.5-.8-1.5C358.8,58.57,358.3,59.07,358.7,60.07Z"/><path d="M205.1,66.17c-40,12.5-58.6,17.2-68.7,17.6-3.7.1-5,.9-11.9,7.3-7.5,7.1-7.7,7.3-7,10.9.5,2.5,1.5,4,3,4.7,3,1.4,5.6.1,10.4-5.2,2-2.1,4.5-3.9,5.6-3.9a7.44,7.44,0,0,0,3.9-1.7c1.3-1.2,3.8-1.9,7.9-2,3.4-.1,6.6-.7,7.1-1.2s2.6-1.1,4.3-1.1c2.2,0,5.9-1.7,11.1-5,7.7-4.8,7.9-4.9,18.1-5.6l10.3-.7L197,78c-2.7-2.9-1.8-4.2,1.7-2.5,2.2,1,2.5.9,2.1-.3-.8-1.9.2-2.7,2.2-1.6,1.2.6,3.2.1,6.5-1.6,2.7-1.4,5.1-2.2,5.4-2,.6.7,8.2-3.3,8.2-4.3,0-.5,1.5-1.1,3.3-1.5,2.5-.5,2.9-.9,1.7-1.6C225.3,60.77,219.6,61.67,205.1,66.17Z"/><path d="M371.8,80.17c-.4.4-3.9.9-7.9,1.1A67.58,67.58,0,0,0,351.6,83a76.37,76.37,0,0,1-8.8,2,87.63,87.63,0,0,0-10.9,3.7c-5.5,2.4-8,3-11,2.5s-4.9,0-10.4,2.9c-3.6,1.9-7.4,3.5-8.4,3.5a3.15,3.15,0,0,0-2.4.9c-.6,1-11.8,6.4-15.6,7.6-1.3.4-6.6,3.3-11.9,6.5-10.6,6.4-13.2,7.4-23.9,9.1-6.3.9-8.3,1.8-13.5,5.8-3.5,2.6-6.9,6.2-7.9,8.1-2,4.3-7.2,9.4-13.2,12.9a108.32,108.32,0,0,0-11.6,8.6c-8,6.8-12.5,14.4-12.4,20.7.1,2.4-.3,3.8-1.1,3.8s-1.4,2.9-1.8,9c-.7,9.2-1.9,12.8-6.3,18.7-3.2,4.2-3.1,10.2.1,18.2,2.7,6.6,2.5,8.6-.6,7.6-1.2-.4-1.9-.2-1.9.7,0,2.5,1.7,4,3.8,3.4s2.1-.3,2.2,5.6c.1,3.5.1,8.7,0,11.5a42.25,42.25,0,0,0,1.5,10.5c1.8,6.2,1.2,15.3-1.2,16.2-1,.4-1.1,1.1-.4,2.3a30.33,30.33,0,0,1,1.6,6.5c.6,3.9.4,4.9-1.4,6.7a6.88,6.88,0,0,1-3.9,2.1c-2.4,0-7.2,5.1-7.2,7.6.1,3.1,2.3,6.2,7.4,10.4,5.6,4.7,8.8,5.7,12.2,4.1,4.4-2,8.9-1.2,19.4,3.4s16.9,5.7,19,3.2c.5-.6,1.8-2.2,2.8-3.5a6.94,6.94,0,0,1,5.4-2.7c4.9-.5,7.8-1.4,7.8-2.6,0-.5,1.1-.9,2.4-.9,1.7,0,2.8.9,4.1,3.6,1.6,3.4,1.9,3.5,5.2,2.9,3.5-.6,10.7,1.1,9.9,2.4-.3.4,1.1.7,3,.7,2.8,0,4.4.9,8.3,4.8,2.7,2.7,5.1,6.1,5.5,7.7.7,3.4,2,3.6,6.1.9,3.5-2.3,5.3-2.5,7.4-.6,2.6,2.1,12.9,3.8,15.4,2.4,4.6-2.4,9.7-7.1,10.3-9.5.7-2.7,4.1-4.5,7.3-3.6,1.4.3,2.3,0,2.7-1.1,1-2.5,1.7-2,4.3,3l2.5,4.6,4.9-.6c2.9-.4,5.4-.3,6.1.4,2,1.6,8.1-2.9,8.1-6,0-2.3.4-2.5,6.5-3.1,7.4-.6,10.7-2.1,16.8-7.5a128.86,128.86,0,0,1,13.5-9.7c6.1-3.9,9.8-7,11.3-9.5a34.53,34.53,0,0,1,6.4-7.1c3.9-3.1,4.4-3.3,10-2.6,5,.6,6.7,1.3,10.4,4.6l4.4,3.9,7.4-4.9c6.5-4.2,8.2-5.9,13.2-13.9l5.7-9-7.5-11.4c-4.8-7.2-9-12.3-11.6-14.1-3.7-2.6-4-3.2-3.5-6.3,1.7-11.3,2.3-9.9-4.7-12.4-9.8-3.6-9.9-3.7-8.8-6.5s.9-2.8-5-7c-1.9-1.3-4.6-3.2-6-4.2s-4.4-1.9-7.2-1.9c-13.5-.4-12.3,0-16.2-5.3-3.2-4.4-3.6-5.5-3.6-11.1,0-7.8,1.6-11.1,9.1-19.1,7-7.6,8.3-11.5,5.1-15.9l-2.1-2.8,2.3-1.5c1.6-1.1,2.5-2.9,2.9-5.7s1.3-4.7,2.6-5.7a5,5,0,0,0,2.1-4.2c0-3,4.7-8.8,8.8-11,2.8-1.5,2.8-3.7.1-4.4-2.2-.6-2.2-1-.3-10.9.5-2.3.1-2.8-3.3-3.9-4.8-1.6-7.4-1.4-8.5.6-1.3,2.2-3.5,1.8-5.4-1-2-3-3.4-3.2-3.4-.6,0,3.4-2,3.5-3.3.2-.6-1.7-1.7-3.1-2.4-3.1-1.9,0-1.6,1.8.7,4.7,2.5,3.2,2.5,4.3.2,4.3-2.6,0-5.8-4.8-6.5-9.5-3.1-22.4-2.9-21.4-5.6-21.3A44.26,44.26,0,0,1,374,80,3.1,3.1,0,0,0,371.8,80.17Z"/><path d="M406.6,105.57c.9,1.6,2,3,2.6,3s.1-1.4-1.1-3-2.3-3-2.6-3S405.7,103.87,406.6,105.57Z"/><path d="M82.1,129.47c-9.8,5-20.4,12.5-22.9,16-2.8,3.9-12,10.8-15.6,11.7a22.14,22.14,0,0,0-5.9,2.7l-2.9,2,2.3.9a15.38,15.38,0,0,0,5.4.7,19.56,19.56,0,0,1,5.2.6c2.2.7,4.8-1.3,8.1-6.3a16.68,16.68,0,0,1,5.7-4c4-1.8,7.8-5.2,5.9-5.2-.5,0-1.5-1.2-2.2-2.7-1.6-3.5-.8-4.1,11.5-8.8,5-2,10.2-4.7,11.5-6.1,1.7-1.8,3.3-2.4,6.7-2.4,5.9,0,5.2-2.4-.9-2.8C90.5,125.57,88.1,126.37,82.1,129.47Z"/><path d="M175.1,229.67c.7,1.1,1.4,1.8,1.7,1.5.8-.8-.5-3.6-1.7-3.6C174.4,227.57,174.4,228.17,175.1,229.67Z"/><text class="cls-2" transform="translate(136.7 459.6)"><tspan class="cls-3">F</tspan><tspan class="cls-4" x="27.66" y="0">r</tspan><tspan x="47.52" y="0">iesland</tspan></text></svg>