<svg xmlns="http://www.w3.org/2000/svg" viewBox="0 0 500 500"><defs><style>.cls-1{fill:#00cfbe;}.cls-2{font-size:60px;font-family:MyriadPro-Regular, Myriad Pro;}.cls-3{letter-spacing:0.01em;}.cls-4{letter-spacing:0em;}.cls-5{letter-spacing:-0.01em;}.cls-6{letter-spacing:0em;}.cls-7,.cls-8{fill:none;stroke:#000;}.cls-7{stroke-width:26px;}.cls-8{stroke-width:18px;}</style></defs><title>Internationalisme</title><g id="Layer_1" data-name="Layer 1"><rect class="cls-1" x="10" y="10" width="480" height="480"/><path d="M480,20V480H20V20H480M500,0H0V500H500V0Z"/><text class="cls-2" transform="translate(29.24 459.6)"><tspan class="cls-3">I</tspan><tspan class="cls-4" x="14.94" y="0">n</tspan><tspan class="cls-5" x="48" y="0">t</tspan><tspan x="67.5" y="0">e</tspan><tspan class="cls-6" x="97.56" y="0">r</tspan><tspan x="117.42" y="0">n</tspan><tspan class="cls-4" x="150.72" y="0">a</tspan><tspan x="179.4" y="0">tionalisme</tspan></text></g><g id="Layer_2" data-name="Layer 2"><path class="cls-7" d="M247.24,111c-83.36.41-148.4,74.37-128.69,157.46,11.22,47.27,50.15,84.25,99.53,94.52,86.78,18.07,163.19-45.1,162.76-125.09C380.47,168,321.48,111.36,248.6,111Z"/><path class="cls-8" d="M248.08,111V366.09M381,238.55H115.16M145,160c61.59,42.16,144.27,42.16,205.86,0m0,157c-61.59-42.16-144.27-42.16-205.86,0M237.7,114.24c-71.91,58.27-81,161.44-20.25,230.44A166.06,166.06,0,0,0,237.7,364.1m20.44,0c71.91-58.27,81-161.44,20.25-230.43a166.9,166.9,0,0,0-20.25-19.43"/></g></svg>