<svg xmlns="http://www.w3.org/2000/svg" viewBox="0 0 500 500"><defs><style>.cls-1{fill:#fbff00;}.cls-2{font-size:60px;font-family:MyriadPro-Regular, Myriad Pro;}.cls-3{letter-spacing:0em;}</style></defs><title>Isolationisme</title><g id="Layer_1" data-name="Layer 1"><rect class="cls-1" x="10" y="10" width="480" height="480"/><path d="M480,20V480H20V20H480M500,0H0V500H500V0Z"/><text class="cls-2" transform="translate(83.54 459.6)">Isol<tspan class="cls-3" x="85.2" y="0">a</tspan><tspan x="113.88" y="0">tionisme</tspan></text></g><g id="Layer_2" data-name="Layer 2"><path d="M214.32,100.55l-3.84,6.62-.15,8.9c-.21,15,.86,40.51,2.07,49.84.64,4.91,2,12.39,2.92,16.73,2.93,13,2.93,13-6.13,11.82-17.47-2.21-50.76-2.28-74.29-.14-5.42.49-7.42.42-11.55-.72-20-5.19-35.94-7.76-50.77-8.25l-12.33-.43v4.55c0,8.05-.78,7.48,11.84,8,6.06.21,11.55.78,12.26,1.14.93.57.43.78-2.35.85-1.93.07-8.35.29-14.19.57l-10.63.43-3.06,4.77L51,210.05l1.64.85c3,1.71,29.52,1,52.55-1.42l20.32-2.06,7.84,2.06c36.36,9.54,53.12,13.31,70.09,15.88,1.71.28,3,.85,3,1.42,0,1.35-4.63,10.25-7.34,14.1-1.36,1.85-6,7.62-10.34,12.81-16.19,19.23-19.82,24.07-23.53,31.05l-3.78,7.12,8.77-3.56c8.56-3.42,8.84-3.64,12.69-8.33,2.14-2.64,7.77-9.26,12.48-14.74s9.91-11.75,11.55-13.89a95.34,95.34,0,0,0,11-19.79l1.57-4.41H229l2.35,5.27c2.06,4.77,2.56,5.34,5.26,6.4,3.34,1.29,6.54,1.5,7.18.5a37.72,37.72,0,0,0,.5-6.76c.14-5.77.29-6.12,1.71-6.12s1.56.49,2,4.34c.64,6.26,1.85,9.9,3.84,11.18a6.12,6.12,0,0,0,7.68-.64c2-1.86,2-2.92.57-13.46-.35-2.35-.21-3,.29-2.49s1.21,3.91,1.63,7.83c.72,5.77,1.21,7.48,2.49,8.83a5.68,5.68,0,0,0,8.61-.29c1.64-1.85,1.78-2.56,1.49-6.9-.21-4.13-.07-4.84.86-4.7.78.14,1.14,1.42,1.42,4.63.43,5.55,2.49,8,6.47,8a4.82,4.82,0,0,0,4.41-2.13l1.85-2.14,1.07,5.2c.57,2.77,1.71,11.82,2.56,20.07,1.49,14.53,3.49,30.12,5.12,39.52.64,4.06,1.43,5.55,6.26,12.24l5.48,7.62.5-4.77a87.66,87.66,0,0,0-.64-21.86c-3.56-26.48-5.34-40.51-5.76-45.21a86.91,86.91,0,0,0-1.78-11.24c-.71-3.28-1.35-6-1.35-6.06s11-.14,24.39-.21c17.22,0,31.3-.5,48.3-1.64l23.9-1.56,4.2,2.06c9.39,4.77,28.67,12.25,31.51,12.25.57,0,2.85-8.69,2.85-10.9,0-.57-1.85-1.49-4.41-2.35l-4.49-1.35,7.9-.21,7.9-.22.49-3.7c.22-2.06.43-4.7.43-5.91v-2.2l-8.54-.57c-4.62-.22-14.22-.22-21.26.07l-12.81.5-10.17-4.63c-18.92-8.62-30.8-11.82-46.45-12.46-13.16-.5-22.76.43-51.92,5.12l-2.85.5-1.64-5a58,58,0,0,1-2.2-10c-.64-6.12-2.06-8-6.19-8a4.89,4.89,0,0,0-4.41,1.92c-1.64,1.92-1.64,2.28-1.49,13.1.14,9.4,0,11.1-.86,11.32s-1.35-2.07-2.63-11.39c-.85-6.41-1.56-12.61-1.56-13.89a5.9,5.9,0,0,0-6-6,5.71,5.71,0,0,0-4.2,1.5l-1.49,1.42-1.28-2.14c-2.35-3.91-7.11-4.27-9.82-.85-1.35,1.71-1.42,1.71-1.42.36,0-2.64-2.91-5.27-5.9-5.27-5.05,0-6.4,2.7-7.47,14.38l-.57,6.76-2.28-9.25c-1.21-5.13-2.77-12.32-3.34-16-1.14-7.05-2.42-33.25-2.49-51.62,0-9.25-.21-11.46-1.85-17.23C219.86,97,218.8,94,218.58,94S216.38,97,214.32,100.55Zm45.49,106.78c.43,3.13.36,4.06-.21,3.49-1.28-1.14-2.92-12.17-2.85-18.44l.07-5.7,1.29,8.19C258.75,199.36,259.53,205,259.81,207.33Zm-15.31-4.7c-.07.22-.42,0-.71-.35s-.43-3.56-.21-7.05l.43-6.41.35,6.76A47.48,47.48,0,0,1,244.5,202.63Zm-36.24,3.72a24.09,24.09,0,0,1,4.42.92,10.06,10.06,0,0,1-.5,3.35l-.78,3.06-4-.43c-6.91-.85-23.07-3.91-31.47-6.12l-8.11-2.06,18.15.28C196,205.57,206,206,208.26,206.35Zm144.32,7.39c6.84,1,19.08,4.27,20.15,5.27,1.21,1.21-43.93,3.13-59.31,2.56-14.09-.5-17.08-.85-17.58-2.21-.22-.57-.29-1.14-.15-1.28.5-.43,25.35-4.06,31.76-4.63C337.63,212.53,345.39,212.6,352.58,213.74Z"/></g></svg>