<svg xmlns="http://www.w3.org/2000/svg" viewBox="0 0 500 500"><defs><style>.cls-1{fill:#ffd900;}.cls-2{font-size:60px;font-family:MyriadPro-Regular, Myriad Pro;}.cls-3{letter-spacing:0.02em;}</style></defs><title>Kapitalisme</title><g id="Layer_1" data-name="Layer 1"><rect class="cls-1" x="10" y="10" width="480" height="480"/><path d="M480,20V480H20V20H480M500,0H0V500H500V0Z"/><text class="cls-2" transform="translate(103.79 459.6)"><tspan class="cls-3">K</tspan><tspan x="33.48" y="0">apitalisme</tspan></text></g><g id="Layer_2" data-name="Layer 2"><path d="M253.19,70.74c-.6.08-3,.34-5.28.57a139,139,0,0,0-35.14,8.3c-12.1,4.78-21.52,13-20.69,18.09.64,3.92,4.18,8.33,9.8,12.11,6.63,4.41,13.23,7.12,24.17,9.87,31.1,7.81,73.1,5.24,96.52-6a41.16,41.16,0,0,0,11.91-8c3.32-3.28,4.3-5.28,4.3-8.67,0-3.24-.91-5-4.22-8.18-9-8.56-27.83-14.86-53.09-17.65C277.77,70.86,255.42,70.44,253.19,70.74Z"/><path d="M335.74,121.64a93.11,93.11,0,0,1-26,10.52c-27.3,6.87-64.74,6.68-89.51-.41a112.38,112.38,0,0,1-20.17-7.92c-4-2-7.43-3.54-7.62-3.54s-.34,6-.34,13.72v13.76l3.43,3.13A44.79,44.79,0,0,0,207,159a105.67,105.67,0,0,0,33.93,9.91c15.34,1.55,38.46,1.47,51.65-.18,11.39-1.48,27.86-6.94,36.5-12.15,5.65-3.43,8.71-6.86,9.95-11.12.64-2.26,1.13-21.53.6-24.35l-.3-1.63Z"/><path d="M132.54,132a85.45,85.45,0,0,0-19.38,2.79c-22,5.43-36.61,14.63-36.61,23.15a10.66,10.66,0,0,0,1.1,3.62c5.09,10.71,31.25,20.93,57.46,22.47,9.91.61,34.19.23,39.28-.56,2.08-.34,4.15-.68,4.56-.79.8-.19.83-.38,1.1-11.2.38-16,.11-36.46-.49-37.52a3.38,3.38,0,0,0-1.92-1.24C173.94,131.75,148.26,131.33,132.54,132Z"/><path d="M192,178.8c.11,8,.34,13.42.6,14.25a15.81,15.81,0,0,0,2.19,3.55c6.94,8.52,25.15,15.72,47.28,18.7a235.16,235.16,0,0,0,27.48,1.43l4.34-.11,3-5.85c5-9.65,8.71-14.85,16.9-23.82,4.37-4.79,5.27-6.26,3.58-5.85-6.52,1.59-29.64,3.21-38.57,2.75a190.16,190.16,0,0,1-39.21-6.07,97.9,97.9,0,0,1-23-9.38c-2.41-1.36-4.45-2.49-4.56-2.49S191.92,171.71,192,178.8Z"/><path d="M354.05,169.68a38.82,38.82,0,0,0-10.26,1.43,88.33,88.33,0,0,0-41.28,23.94A81,81,0,0,0,279.89,240c-1,6.11-.91,17.5.18,24.51,3,19.42,10.86,34.27,25.45,48.3,12.9,12.4,26.85,19.38,43.85,21.87,6.26.94,19.8.94,25.75,0,27.83-4.33,49.62-20.28,61.87-45.28,5.74-11.76,8.41-21.87,8.94-33.78.6-14.4-2.68-28-10.29-43-3.47-6.75-5.36-9.31-11.84-16-9.8-10.06-17.08-15.53-26.58-20-8.75-4.14-16.4-6.11-27.11-7C364.94,169.26,363.32,169.26,354.05,169.68Zm23.34,35.1c6.29.75,8.59,1.62,9.8,3.81.49.86.45,1.32-.3,4.48-1,4.19-1.66,5.55-2.79,6a17.13,17.13,0,0,1-4,0c-1.77-.15-6.71-.3-11-.3-9,0-10.33.23-14.33,3.09-4.53,3.24-9.2,10.11-10.63,15.61-1,3.85-2.91,3.43,16.7,3.58,15.76.12,17.34.19,18.28.79,1.14.76,1.29,1.74.57,4.08-.87,2.94.23,2.75-19.68,3.06H342.15v6.79h34.63l-.26,4.32a41.06,41.06,0,0,1-.45,4.34c-.12.19-2.87.3-6.11.3-7.92,0-24.17.64-25.23,1s-1.09,1.58.38,5.24a26.87,26.87,0,0,0,6.75,9.8c6.3,5.92,14.52,7.58,25.94,5.24a24.82,24.82,0,0,1,5.81-.75c1.35.34,2.15,1.73,2.71,4.68.76,3.77.68,7-.11,7.72-2.94,2.61-19.61,4.53-27.64,3.17-13.76-2.37-24.09-10.29-29.59-22.7-.53-1.24-1.55-4.18-2.27-6.56a21.44,21.44,0,0,0-2-5c-.49-.45-1.69-.79-3.88-1.09a18.65,18.65,0,0,1-4.53-1,2,2,0,0,1-1.43-2.11,7.8,7.8,0,0,1,1.85-5.36c.56-.53,1.62-.75,3.73-.94a10.14,10.14,0,0,0,3.55-.68c.83-.72.83-5,0-5.73a12.24,12.24,0,0,0-3.81-.72c-3.85-.22-4.45-.71-4.07-3.39.49-3.69,1-4.18,5.39-4.86,3.5-.57,3.58-.68,5.92-7.2,4.14-11.65,10.74-19.65,20.58-25a35.35,35.35,0,0,1,11.65-4A120,120,0,0,1,377.39,204.78Z"/><path d="M76.72,193.66v13.8l2.83,3.09c5.43,6,12.82,10.29,23.75,13.76,14.1,4.52,28.54,6.6,46.38,6.6a160.47,160.47,0,0,0,26.95-1.77l3.21-.46.26-2.07c.12-1.13.34-8.56.53-16.51l.27-14.48-1.29.22c-10.18,1.62-25.41,2.12-41.43,1.36-10.22-.49-16.44-1.21-23.38-2.68-15.19-3.2-25.64-7-34.42-12.55-1.85-1.17-3.39-2.11-3.51-2.11S76.72,186.08,76.72,193.66Z"/><path d="M192,225.18c.15,15,.11,14.81,4,18.81,5.5,5.81,17.12,11.27,31.37,14.86,10.74,2.67,17.72,3.58,29.86,3.84l9.65.23.26-1.28c.16-.72.42-5.7.61-11.09s.6-12,.94-14.63a40,40,0,0,0,.53-4.94c-.08-.11-4.15-.45-9-.79-24.66-1.66-39.74-4.67-53.54-10.63a120.83,120.83,0,0,1-11.54-5.81,20.17,20.17,0,0,0-3-1.47C192,212.28,191.92,218.09,192,225.18Z"/><path d="M76.72,240.14v13.92l3.77,3.58c5.43,5.24,9.28,7.69,16.63,10.63a142.81,142.81,0,0,0,27.67,7.35c9.09,1.51,28.73,1.81,44.38.72,4.34-.3,10.33-1.21,10.74-1.62.19-.19.91-32.39.72-32.58s-2.6.15-5.58.49c-3.73.46-9.46.72-18.51.83-27.37.42-41.59-1.35-59.08-7.35-7.77-2.68-10.71-4-16.63-7.65-2-1.21-3.73-2.23-3.88-2.23S76.72,232.49,76.72,240.14Z"/><path d="M192.09,269.14c0,12.52.34,16.21,1.7,18.21,7.39,11.16,30.31,19.38,59.76,21.45,6.11.42,24.05.49,28,.12,2.53-.23,2.57-.23,2.34-1.21-.11-.53-1.81-4.11-3.73-8-4.41-8.74-7.05-14.78-8.37-19.07a34.8,34.8,0,0,0-1.1-3.47s-5.46-.49-12.1-1-14.67-1.28-17.87-1.7c-15-2-27.86-5.62-38.27-10.86-1.85-.94-5-2.41-6.86-3.31l-3.51-1.63Z"/><path d="M76.55,282.49c0,15.26.57,18.7,3.7,21.9,6.6,6.86,25,14.37,41.92,17.19,6.26,1,16.25,1.55,29.79,1.55,12.25,0,18.85-.38,24.32-1.36,2.75-.49,3.58-.79,3.58-1.24s.19-7.69.38-16.4.34-15.84.26-15.91a18.47,18.47,0,0,0-3.28.41c-5.73,1-26,1.51-38.87,1-12.37-.49-16.48-.94-24.66-2.75q-22.45-5-34.54-13.16a20,20,0,0,0-2.37-1.51C76.63,272.23,76.55,276.87,76.55,282.49Z"/><path d="M192.09,318.34V332l2.94,3.17c5.58,6.1,12.37,10.1,22.93,13.57,15.08,4.94,31.78,7.13,51.76,6.71s35.07-3.17,50.75-9.31c5.54-2.19,7.73-3.32,7.73-4,0-.26-2.53-1.73-5.58-3.28a125.44,125.44,0,0,1-22.81-14.7c-2.11-1.66-4-3.13-4.22-3.32a46.67,46.67,0,0,0-7.17.41,181.21,181.21,0,0,1-30.35,1.17c-23.83-1.24-42.19-5.61-58.7-14l-7.28-3.7Z"/></g></svg>