<svg id="Layer_1" data-name="Layer 1" xmlns="http://www.w3.org/2000/svg" viewBox="0 0 500 500"><defs><style>.cls-1{fill:#f36c21;}.cls-2{font-size:60px;font-family:MyriadPro-Regular, Myriad Pro;}.cls-3{letter-spacing:0em;}</style></defs><title>Nederland</title><rect class="cls-1" x="10" y="10" width="480" height="480"/><path d="M480,20V480H20V20H480M500,0H0V500H500V0Z"/><text class="cls-2" transform="translate(117.74 459.6)">Nede<tspan class="cls-3" x="133.44" y="0">r</tspan><tspan x="153.3" y="0">land</tspan></text><path d="M344,37.43c-.23.4.08.81.71.81a11,11,0,0,1,1.81.08,1.1,1.1,0,0,0,.86-.81C347.79,36.37,344.65,36.37,344,37.43Z"/><path d="M336.17,38.24c-.63,1,1.57,1.94,3.14,1.29.63-.24,1.18-.81,1.18-1.29C340.49,37.18,336.8,37.18,336.17,38.24Z"/><path d="M323.6,42.7a19.05,19.05,0,0,1-6.28,1.22c-4.55,0-5.89,1-5.89,4.21,0,1.71.39,2.28,1.49,2.28a2.39,2.39,0,0,0,2-1.22c.23-.65,1.41-1.22,2.59-1.22a12.49,12.49,0,0,0,5.34-2c1.73-1,3.77-2,4.55-2,1.65,0,1.42-2-.31-2.19A9.47,9.47,0,0,0,323.6,42.7Z"/><path d="M290.62,47.16A40.22,40.22,0,0,0,283.94,49c-2.51,1.13-3.06,1.13-5.41,0-2.2-1.14-2.67-1.14-3.3-.16-1.18,1.86-.79,3.08,1.33,4.54,2,1.3,2.2,1.3,5.34-.57a18.8,18.8,0,0,1,6.76-2.11c11.31-.57,17.51-2.68,11.7-3.89C297.53,46.27,296,46.35,290.62,47.16Z"/><path d="M348,50.41c-4.4,1.46-8.72,2.43-11.47,2.43-3.61,0-4.63.33-6.2,2-2.12,2.35-4.16,2.51-7.38.81a9.69,9.69,0,0,0-3.3-1.22c-1.41,0-2.28,1.71-1.18,2.44.71.4.63.81-.31,1.62-1.89,1.62-1.42,3.25,1.41,4.46L322,64.2,318.89,64c-2.9-.25-3.14-.41-3.53-3.09a19.09,19.09,0,0,0-1.1-3.89c-.94-1.54-11-.41-15.79,1.87a49.28,49.28,0,0,1-6.2,2.35A15.94,15.94,0,0,0,288,63.23,48.46,48.46,0,0,1,280.8,67c-2.82,1.3-5.89,2.76-6.91,3.16a9.19,9.19,0,0,0-3.06,3,19.49,19.49,0,0,1-4.24,4.3c-3.22,2.36-4,3.82-5.89,11.12a49.23,49.23,0,0,1-2.36,7.14c-1.1,2.43-1.1,2.84,0,4.62.79,1.22,1.42,4.71,1.65,9.5.47,6.73.32,7.79-1.1,9.9-1.49,2.27-1.49,2.51-.23,4.7,1.1,1.87,1.8,2.27,4.47,2.27a10.69,10.69,0,0,1,5.42,1.54c2.12,1.46,2.51,1.46,4.56.41a11.33,11.33,0,0,1,5.34-1l3.06.24-2.83,4.46c-1.65,2.44-3.37,5-3.92,5.52s-1,3.16-1,6.41c0,5,.16,5.52,3.22,9.33l3.3,4,6.36-.57a49.18,49.18,0,0,0,9.51-1.63,18.29,18.29,0,0,1,4.87-1.13c2.75,0,2.9-1.54.23-2.76l-2.51-1.05,1.88-2.28,1.89-2.19-.08,2.27c0,1.71.39,2.44,1.57,2.6,4.79,1,2,4.63-4.16,5.36-6.36.73-7.07,1.38-5.73,4.7a26.89,26.89,0,0,1,1.41,7c.55,6.17-2,10.06-11.23,17.69-4,3.32-7.93,7.22-8.64,8.68a16.9,16.9,0,0,1-6.75,7.54c-4.48,2.44-11.39.73-15-3.65a6.3,6.3,0,0,0-4.4-2.35,13.47,13.47,0,0,1-5.34-1.87,21.78,21.78,0,0,0-7.78-2.35c-7.3-1-7.77-1.87-3.22-5.84,3.46-3.08,4.64-5.6,2.91-6.74-.47-.32-.47-1.21,0-2.51,1.18-3.16.94-5-1.49-10.71-1.26-3-2.52-6.41-2.83-7.55-.47-2.11-.47-2.11,4.95-2.51,9.11-.65,15.15-5.36,15.39-11.77l.08-3.08-4.95-.49c-3.38-.32-5.42-1-6.44-2-1.81-2-2-3-1.26-8.2s-.7-8.68-4.47-11.44c-4.87-3.41-10-1.54-10,3.65,0,1.3-.47,1.87-1.49,1.87-2,0-3.69-1.79-6-6.57-3.92-8-7.69-6.66-9,3.08-.39,3.25-1.73,9.82-2.83,14.6a126.32,126.32,0,0,0-2.67,17.37c-.55,8.27-2.82,19.71-6.75,33.59-3.06,10.87-12.49,26.12-24,38.94-5.66,6.33-7.7,10-6.52,11.93.39.57-.16.73-1.73.32-7.46-1.7-7.46-1.7-7.23.81a9.93,9.93,0,0,1-.78,4.14c-1.26,2.35-1.26,2.44,1,3,1.49.41,2,1.06,2,2.76.08,2.92,3.7,6.9,7.46,8.12,1.73.48,6.13,3.24,9.82,6,12.49,9.33,17.67,11.11,25.13,8.36,6.68-2.44,7.62-.82,1.42,2.35-4.24,2.19-9.74,2.76-12.33,1.3-1.1-.57-1.65-.33-2.52,1.3-1.65,3.32-3.61,3.89-12.88,3.65-6.36-.08-9,.16-10.21,1-1.41,1.14-1.41,1.22.87,2.52l2.28,1.29-4.32-.4c-7.39-.81-10.13,2.19-6.13,6.65,1.89,2.11,4.24,3.08,10.37,4.38,8.09,1.62,12.09,7.71,6.28,9.66-4.24,1.46-7.23.4-13.27-4.47-9.58-7.78-11.15-8.76-15.32-9.16-3.3-.33-4.39,0-6.91,1.78a13.86,13.86,0,0,1-3.85,2.11c-.55,0-2.59-2.19-4.55-4.87-2.91-3.89-4.09-4.87-5.81-4.87a4.72,4.72,0,0,0-3.22,1.22,3.4,3.4,0,0,1-2.12,1.22c-2.28,0-5.74,2.51-5.74,4.14,0,3.65,4.24,9,9.19,11.6,2.36,1.22,2.75,1.22,4.48.08s2-1.22,4.79,1.3c2.59,2.35,4,3.32,9.66,6.49,2.36,1.38,4.71,0,8.09-4.63l2.51-3.48,2.91,2.35c3.77,3.08,5.26,3.65,15.23,5.6,5.34,1.05,9.74,2.43,12.25,3.89,5,2.92,5.66,2.11,5-5.92l-.47-5.76,3.69-1a14,14,0,0,1,5.11-.48c1.64.57,2.74,3.16,1.88,4.54s1.18,2.35,4.16,2.35c2,0,3.62-1.05,7.78-4.86,2.9-2.76,5.81-4.87,6.52-4.71a4.74,4.74,0,0,1,2.27,2.51c1.26,2.68.4,4.22-3,5.68-1.81.73-1.57.9,2.67,1.55,2.59.32,5,1,5.5,1.46,2.43,2.51,7.38-.65,9.58-6.09,1.18-3.08,2.35-3.49,4.55-1.78,1.1.81,1.57,2.67,2,7.7.71,8.36,2.13,11,5.82,10.31,2.82-.57,3.84.24,4.71,3.89.94,4.06,6.52,4.95,14.21,2.19a28.79,28.79,0,0,1,6.29-1.62c2.12,0,4,2,4.71,5.11.86,3.49,4.4,5.92,11.78,7.87,7.22,2,9,3.25,7.54,5.19-.71.9-.71,1.55,0,2.76s.47,2.19-2,5.84c-2.59,3.82-2.82,4.63-2.43,8s.16,4.3-3.46,10.63c-2.19,3.81-4,7.62-4,8.6a11,11,0,0,0,1.88,4.54c1.26,1.95,1.73,3.57,1.5,5-.48,2.35-.4,2.43,2.59,1.3,1.57-.65,4.16-.49,9.74.4,8.16,1.46,12.64,1.38,13.11-.16.16-.49-.55-1.46-1.65-2l-2-1.13,4.24-3.9c2.91-2.59,4.48-4.78,4.79-6.49.32-1.38.71-3.16.87-3.89.31-1-.16-1.38-1.81-1.63s-2.44-.89-3.46-3.89c-1.65-4.54-3.06-5.6-5.81-4.06-2,1.06-2.28,1.06-3.61-.73-1.57-2-2-7.7-.71-8.6a3,3,0,0,1,2.44.49c1.41.73,2,.57,3.53-1.22,1.1-1.13,4.56-4,7.78-6.57s6.36-5.52,7.06-6.9l1.26-2.51-2.2.65c-7.14,1.86-9.42-2.19-4.63-8.2,7.3-9.25,10.37-17.93,9.66-27.58-.32-5-.63-5.84-2.44-7.22-2.43-1.79-4.47-5.76-6-11.28-.94-3.73-3.21-7.14-4.71-7.14-.47,0-.78-1-.78-2.43,0-1.95-.63-2.84-3.22-4.55-2-1.3-3.07-2.43-2.75-3.24a4.65,4.65,0,0,0-.47-3.09c-1.42-3.24-.24-5.59,4.08-8,3.38-2,4.32-2.19,6.28-1.54,3,1.14,3.46.41,1.1-2-4.39-4.54-1.17-4.62,8.25-.24,6.91,3.24,9.82,3.89,10.6,2.51a9,9,0,0,1,3.77-1.29c4.71-.82,11.31-3.33,13.82-5.2,1.73-1.21,3-1.46,5.5-1.13s3.85.08,5.26-.9c2.52-1.7,5.11-5.92,5.11-8.27,0-2.68-2.91-5.84-6.44-7-1.73-.49-3.3-1.38-3.46-1.86-.7-1.71,3.69-7.63,6-8.12,1.34-.32,3.85-2.43,6.28-5.35a48.68,48.68,0,0,1,8.33-7.79c4.16-2.84,5.34-5.28,3.53-7.22-.47-.41-.39-2.19.08-4.63,1.1-4.7-.16-12.9-2.43-16-1.42-1.95-1.73-2-8.41-1.79-7.93.33-12.64-1.05-15.23-4.54-2.12-2.68-2-6.33,0-6.9,2.51-.65,2.67-2.75.47-6.57-2.51-4.46-2.51-5.35-.24-5.35a4.22,4.22,0,0,0,2.67-.9c1.1-1.13,7.39-1.13,12,0,9.19,2.2,9.74,1.71,9.82-10.62.15-10.71-.24-9,6.75-27.26,2.51-6.5,2.51-6.9,1.65-11.36-.71-3.57-.71-6.58,0-13.15,1-9.9.31-12.57-3.85-14.6a6.63,6.63,0,0,1-3.45-3.9c-.95-3-2.28-3.89-7.78-5.11-4.48-1-8.64-4.14-8.64-6.49a33.67,33.67,0,0,0-.86-5.35C366.09,47.57,360.2,46.27,348,50.41Z"/><path d="M262.74,52.52A33.54,33.54,0,0,1,256,54.46c-4.24,0-13.75,5.11-14.77,7.79a4.12,4.12,0,0,0,0,2.36c.55,1.37,2.67,1.7,2.67.4s4.79-4,9.11-4.87c2.28-.48,4.56-1.46,5.11-2.11.7-.89,1.72-1.13,3.61-.73s2.59.17,2.59-.73c0-.65,1.26-1.86,2.75-2.84,2.75-1.62,3.69-3.4,1.81-3.24A59.77,59.77,0,0,0,262.74,52.52Z"/><path d="M232.74,70.61a27.43,27.43,0,0,1-5.11,3.57c-2.67,1.46-5.73,5-5.73,6.73,0,2,3.14,1.22,5.89-1.62,1.49-1.46,2.75-3.33,2.75-4.06s.86-1.54,2.36-1.78c3.22-.73,5.89-5.19,3.06-5.19A10.85,10.85,0,0,0,232.74,70.61Z"/><path d="M219.39,85.05c-2.67,3.17-7.7,12-9.27,16.23s-1.49,4.62-.39,6.41c1.88,3,4.48,2.43,8.25-1.79,6-6.81,7.22-11.6,4.55-19.23C221.35,83.27,221,83.1,219.39,85.05Z"/><path d="M274.13,159.13c-1.89.81-5.11,3.81-5.11,4.86,0,.41-.78.82-1.73,1-2.51.32-7,7.62-6.36,10.22.4,1.87.32,1.95-1.72,1.46-1.65-.4-2.44-.16-3.22,1-.55.89-2.36,1.78-4,2a22.43,22.43,0,0,0-6.67,2.6c-3.62,2-3.77,2.35-3.77,5.68,0,4.22.55,4.71,3.69,3.49,3.61-1.38,6-.25,11.93,5.52l5.42,5.27,3.54-1c4.79-1.22,6.2-3.09,6.67-8.44.32-4.47.4-4.47,3-4.47,1.88,0,2.9-.48,3.53-1.86a7.51,7.51,0,0,1,5.66-4.14c4.39-.89,9.18-8,9.18-13.71,0-4.87-1.88-7.06-6-7.06a18.32,18.32,0,0,1-6.44-1.62C278,158.15,276.56,158.07,274.13,159.13Z"/><path d="M150,255c-4.47,1.78-6.59,4.62-4.63,6.33.79.64,1.57.64,3.3-.25a18.11,18.11,0,0,1,4.71-1.7c2-.49,2.67-.24,3.69,1.3a15.46,15.46,0,0,1,1.65,5c.71,3.65,2.2,5.43,4.71,5.43,1.73,0,10.13,4.14,11.78,5.76,1.26,1.3,8,.89,9.43-.65s1.88-1.05-4.24-5.27a46.58,46.58,0,0,1-5.58-4.79,18.86,18.86,0,0,0-4.16-3.4,60.88,60.88,0,0,1-7.62-5c-3.38-2.43-6.83-4.38-7.62-4.38A29.07,29.07,0,0,0,150,255Z"/><path d="M135.91,267.44c-5.34,2.92-6.29,7.3-1.65,8.36,3,.65,3.14.57,6-1.63,2-1.46,2.43-1.54,3.61-.56a27.09,27.09,0,0,0,2.9,1.94,4.38,4.38,0,0,1,2.12,2.76c.48,2.19,4.09,4.79,6.68,4.87.94.08,3.14-.89,5-2.19,2.67-1.7,3.3-2.6,3.14-4.22s-.86-2.11-3.14-2.68a4.64,4.64,0,0,1-3.77-3c-1.18-2.92-3.69-3.81-12.17-4.46C139.6,266.22,137.71,266.39,135.91,267.44Z"/><path d="M128.52,283.59c-.55.65.08,1.94,1.89,4.13l2.75,3.09,2.67-1.46c2.35-1.3,3.14-1.38,5.81-.57,3.38,1.05,5.26.73,6-1.14a3.08,3.08,0,0,0-2.12-4.05C142.42,282.61,129.31,282.61,128.52,283.59Z"/><path d="M113.13,309.79c-3,1.14-5.65,2.19-5.81,2.36a5.81,5.81,0,0,0,.47,2.51,6.25,6.25,0,0,1,.08,4.3c-1.49,4.06,1.26,8.28,6.36,9.74,3.69,1.05,5.58.4,5.58-1.95a6.07,6.07,0,0,1,.62-2.6c.79-1.29,6.21-2.19,6.84-1.13a3,3,0,0,0,2.2.81,24.72,24.72,0,0,1,5.49,1.38c3.38,1.22,3.69,1.62,3.69,4,0,3.41,1.65,4.71,5,4.06,1.65-.32,2.83-.16,3,.33.39,1.37,6.75-.41,8.87-2.44,1.1-1.05,2.43-1.62,3.06-1.38,1.49.65,11.86-8.52,13.59-11.92,1.18-2.28,1.1-2.52-.63-4s-1.88-1.46-2.83-.08c-2.12,3-10,.81-11-3a2.2,2.2,0,0,0-2.28-1.55c-1.49,0-2,.57-2.35,2.36a4.18,4.18,0,0,1-2.6,3.32,42.07,42.07,0,0,0-4.16,2.19c-2,1.38-2.2,1.3-3.77-.16s-1.8-1.54-2.75-.16c-1.33,1.87-1.72,1.79-4.79-1a19.78,19.78,0,0,0-6-3.33,17.53,17.53,0,0,1-5.57-2.84C120.75,307.12,120,307.2,113.13,309.79Z"/></svg>