<svg xmlns="http://www.w3.org/2000/svg" viewBox="0 0 500 500"><defs><style>.cls-1{fill:#f0a;}.cls-2{font-size:60px;font-family:MyriadPro-Regular, Myriad Pro;}.cls-3{letter-spacing:-0.02em;}.cls-4{letter-spacing:-0.01em;}.cls-5{letter-spacing:-0.01em;}</style></defs><title>Progressief</title><g id="Layer_1" data-name="Layer 1"><rect class="cls-1" x="10" y="10" width="480" height="480"/><path d="M480,20V480H20V20H480M500,0H0V500H500V0Z"/><text class="cls-2" transform="translate(112.34 459.6)"><tspan class="cls-3">P</tspan><tspan class="cls-4" x="30.96" y="0">r</tspan><tspan x="49.98" y="0">o</tspan><tspan class="cls-5" x="82.92" y="0">g</tspan><tspan class="cls-4" x="116.1" y="0">r</tspan><tspan x="135.12" y="0">essief</tspan></text></g><g id="Layer_2" data-name="Layer 2"><path d="M443,227.3c0-26.73-33.69-46.15-79.88-57.54,15.83-40.93,18.59-76.36-1.85-91.5-5.61-4.17-12.5-6.25-20.48-6.25C316.94,72,284,91.16,250.08,123,215.78,89,182.54,68.49,158.81,68.49a31.44,31.44,0,0,0-18.74,5.6c-16,11.51-18.44,37.59-6.82,75.37,2.27,7.42,5.15,15.15,8.37,23.06C100.81,184.14,72,202.58,72,227.3c0,24.34,28,42.63,67.84,54.29-16.92,42.28-20.44,79.19.53,94.75,5.6,4.17,12.49,6.25,20.48,6.25,23.85,0,56.75-19.12,90.59-50.84,32.48,30.93,63.6,49.36,86.13,49.36a31.47,31.47,0,0,0,18.74-5.6c19.83-14.23,17.22-48.95,2-89.57C406.92,274.81,443,255,443,227.3ZM340.79,87.23c4.65,0,8.51,1.1,11.43,3.25,12,9,10.71,37.67-4.24,75.94a456,456,0,0,0-65.76-7.83q-10.73-13.12-21.54-24.65C293.65,103.17,323.14,87.23,340.79,87.23ZM193.45,264.1c3.55,5,7.15,9.76,10.78,14.53a374.2,374.2,0,0,1-43.38-7.27c4.66-10,10-20.51,16.32-31.38C182.32,248,187.69,256.07,193.45,264.1Zm-30.71-81.25a373.16,373.16,0,0,1,39.15-6.54c-2.42,3.1-4.81,6.2-7.19,9.42-6.06,8.14-11.85,16.58-17.38,25.1Q169.25,196.64,162.74,182.85ZM186,225.41c6.32-10,13.29-20.26,21-30.59,5.34-7.2,10.68-13.93,16-20.45,11.06-.75,22.53-1.17,34.53-1.17,5.87,0,11.58.11,17.19.3,5.3,6.67,10.6,13.56,15.86,20.94,8.93,12.49,16.85,24.72,23.93,36.61-6,9.42-12.57,19-19.8,28.77-5.53,7.46-11.1,14.46-16.62,21.2-6.7.26-13.52.41-20.56.41-11.24,0-22-.41-32.41-1.06-6.39-7.87-12.83-16.2-19.26-25.17C198.71,245.32,192.08,235.32,186,225.41ZM306.9,268.87c5.57-7.5,10.91-15.22,16-23.06q8.24,15,14.35,28.92c-12,2.12-24.88,3.83-38.62,5C301.41,276.13,304.18,272.58,306.9,268.87Zm-4-83.33c-2.69-3.75-5.41-7.38-8.1-11A414.85,414.85,0,0,1,342,180.7a373.88,373.88,0,0,1-18.55,35.77C317,206,310.12,195.57,302.93,185.54Zm-41-27.54c-1.48,0-2.95,0-4.43,0q-10.4,0-20.86.46c4.43-4.92,8.78-9.47,13.14-13.86C253.83,148.84,257.84,153.31,261.93,158ZM149,86.43a16.69,16.69,0,0,1,9.85-2.72c17.37,0,47.05,17,80.37,49.93q-12,12.09-23.81,26.08a420.17,420.17,0,0,0-58.83,9c-3.37-8.14-6.33-16.09-8.67-23.7C138.7,115.36,139.12,93.47,149,86.43ZM87.22,227.3c0-14.54,22.64-30,60.57-40.7a433.06,433.06,0,0,0,20.44,38.77,419.56,419.56,0,0,0-22.33,42.1C109.1,256.83,87.22,241.61,87.22,227.3Zm73.63,140.07c-4.66,0-8.52-1.1-11.43-3.26-12.34-9.16-10.64-39,5.3-78.59a423.91,423.91,0,0,0,62.73,9.54c7.68,9.24,15.44,17.91,23.2,25.9C207.79,351.55,178.42,367.37,160.85,367.37Zm77.68-71.1q9.5.35,18.93.35c2.39,0,4.73,0,7.12-.08-4.39,4.85-8.71,9.35-13,13.7C247.28,305.89,242.93,301.2,238.53,296.27Zm108.88,66.94c-13,9.27-46.11-5.34-85-42.18q11.58-11.7,23-25.17a462.67,462.67,0,0,0,57.73-6.74C357.67,326.94,359,354.88,347.41,363.21Zm5.07-91.5a416.89,416.89,0,0,0-20.33-40.44A420.06,420.06,0,0,0,357.22,184c43.91,10.64,70.56,27.52,70.56,43.31C427.78,243.65,399.2,261.14,352.48,271.71Z"/><path d="M257.5,197.77A29.53,29.53,0,1,1,228,227.3,29.52,29.52,0,0,1,257.5,197.77Z"/></g></svg>