<svg xmlns="http://www.w3.org/2000/svg" viewBox="0 0 500 500"><defs><style>.cls-1{fill:#00af35;}.cls-2{font-size:60px;font-family:MyriadPro-Regular, Myriad Pro;}.cls-3{letter-spacing:0em;}.cls-4{letter-spacing:-0.01em;}</style></defs><title>Regionaal</title><g id="Layer_1" data-name="Layer 1"><rect class="cls-1" x="10" y="10" width="480" height="480"/><path d="M480,20V480H20V20H480M500,0H0V500H500V0Z"/><text class="cls-2" transform="translate(125.48 459.6)"><tspan class="cls-3">R</tspan><tspan x="32.52" y="0">e</tspan><tspan class="cls-4" x="62.58" y="0">g</tspan><tspan x="95.76" y="0">ionaal</tspan></text></g><g id="Layer_2" data-name="Layer 2"><path d="M243.1,50.78a26.86,26.86,0,0,0-19.91,14.45,29.16,29.16,0,0,0-2.46,7.17,35.88,35.88,0,0,0,0,9.6,27,27,0,0,0,21.48,21.48,35.88,35.88,0,0,0,9.6,0A27,27,0,0,0,273.29,82a35.88,35.88,0,0,0,0-9.6,27,27,0,0,0-18-20.55,34.74,34.74,0,0,0-3.44-.91A36.57,36.57,0,0,0,243.1,50.78Z"/><path d="M143.55,92.08a29,29,0,0,0-11.66,4.39,42.76,42.76,0,0,0-7.24,7.24,29.33,29.33,0,0,0-4,9.43,20.74,20.74,0,0,0-.41,5.52,20.57,20.57,0,0,0,.41,5.5,26.93,26.93,0,0,0,23.93,21.2,27.15,27.15,0,0,0,18-5,37.69,37.69,0,0,0,6.11-6.13,27.24,27.24,0,0,0,4.85-17.83,26.86,26.86,0,0,0-3.31-10.75,24.75,24.75,0,0,0-4.16-5.57,26.42,26.42,0,0,0-13.36-7.52,20.11,20.11,0,0,0-5.25-.5C145.61,92,143.85,92,143.55,92.08Z"/><path d="M344,92.15a26.86,26.86,0,0,0-23.06,21.53,20.88,20.88,0,0,0-.32,5.07,18.57,18.57,0,0,0,.5,5.69,26.79,26.79,0,0,0,20.3,20.3,18.57,18.57,0,0,0,5.69.5,20.88,20.88,0,0,0,5.07-.32,27.17,27.17,0,0,0,13.88-7.4,26.9,26.9,0,0,0,7.32-13.7,31.76,31.76,0,0,0,0-10.25,27.18,27.18,0,0,0-21.1-21.09A35.79,35.79,0,0,0,344,92.15Z"/><path d="M101.82,192.25a28.37,28.37,0,0,0-11.53,4.45,35,35,0,0,0-7,7,30,30,0,0,0-4.15,9.79,40.88,40.88,0,0,0,0,10.6,27.52,27.52,0,0,0,21,21,40.88,40.88,0,0,0,10.6,0,27.52,27.52,0,0,0,21-21,40.88,40.88,0,0,0,0-10.6,27.51,27.51,0,0,0-20.59-20.89,22,22,0,0,0-5.16-.41C103.9,192.19,102.07,192.21,101.82,192.25Z"/><path d="M384.72,192.41a26.9,26.9,0,0,0-19.91,14.45,24.13,24.13,0,0,0-2.75,12,22.65,22.65,0,0,0,1.22,8.33,27,27,0,0,0,20.56,18,35.88,35.88,0,0,0,9.6,0,27,27,0,0,0,21.48-21.48,35.88,35.88,0,0,0,0-9.6A27,27,0,0,0,397,193.48a34.74,34.74,0,0,0-3.44-.91A36.65,36.65,0,0,0,384.72,192.41Z"/><path d="M156.8,215.14a.93.93,0,0,0,.32.45c.29.25.32.23.62-.16l.32-.43h-.64C157.09,215,156.8,215.07,156.8,215.14Z"/><path d="M144,292.33a27.92,27.92,0,0,0-10.16,3.28,24.1,24.1,0,0,0-5.57,4.16,26.39,26.39,0,0,0-7.61,13.73,20.57,20.57,0,0,0-.41,5.5,21.57,21.57,0,0,0,1.46,9.08,28.33,28.33,0,0,0,16.06,16.06,21.57,21.57,0,0,0,9.08,1.46,20.44,20.44,0,0,0,5.49-.41,26.93,26.93,0,0,0,21.21-23.93,27.15,27.15,0,0,0-5-18,37.69,37.69,0,0,0-6.13-6.11,27.8,27.8,0,0,0-13.06-4.84A24,24,0,0,0,144,292.33Z"/><path d="M343.5,292.51A27.23,27.23,0,0,0,331,297.74a26.65,26.65,0,0,0-9.91,15.48,18.57,18.57,0,0,0-.5,5.69,20.88,20.88,0,0,0,.32,5.07,26.87,26.87,0,0,0,21.1,21.2,31.76,31.76,0,0,0,10.25,0,27.21,27.21,0,0,0,21.1-21.1,31.76,31.76,0,0,0,0-10.25,26.75,26.75,0,0,0-20.75-21A38.64,38.64,0,0,0,343.5,292.51Z"/><path d="M243.45,333.88a28.23,28.23,0,0,0-11.53,4.45,35,35,0,0,0-7,7,29.65,29.65,0,0,0-4.15,9.79,40.88,40.88,0,0,0,0,10.6,27.52,27.52,0,0,0,21,21,40.88,40.88,0,0,0,10.6,0,27.52,27.52,0,0,0,21-21,40.88,40.88,0,0,0,0-10.6,27.51,27.51,0,0,0-20.59-20.89,21.48,21.48,0,0,0-5.16-.41C245.53,333.82,243.7,333.84,243.45,333.88Z"/></g></svg>